<?xml version="1.0" encoding="UTF-8" standalone="yes"?>
<svg height="300" viewBox="0 0 300 300" width="300" xmlns="http://www.w3.org/2000/svg" xmlns:cc="http://creativecommons.org/ns#" xmlns:dc="http://purl.org/dc/elements/1.1/" xmlns:rdf="http://www.w3.org/1999/02/22-rdf-syntax-ns#" xml:space="preserve" xmlns:svg="http://www.w3.org/2000/svg">
  <path d="M 150,4.0098624 A 145.99014,145.99013 0 0 0 4.0098624,150 145.99014,145.99013 0 0 0 150,295.99013 145.99014,145.99013 0 0 0 295.99014,150 145.99014,145.99013 0 0 0 294.8876,132.27779 114.25453,114.25453 0 0 1 181.73575,232.51864 114.25453,114.25453 0 0 1 67.481356,118.26426 114.25453,114.25453 0 0 1 167.72221,5.1123921 145.99014,145.99013 0 0 0 150,4.0098624 Z" id="crescent" style="fill: #FFFFFF; fill-opacity: 1.0; stroke: #0000FF; stroke-dasharray: none; stroke-dashoffset: 0.0; stroke-linecap: square; stroke-linejoin: miter; stroke-miterlimit: 9.0; stroke-opacity: 1.0; stroke-width: 8.0">
    <desc>&#x1F319;</desc>
    <title>Lapys</title>
  </path>
  <metadata>
    <rdf:RDF>
      <cc:Work rdf:about="Lapys">
        <dc:creator><cc:Agent><dc:title>LapysDev</dc:title></cc:Agent></dc:creator>
        <dc:description>Lapys</dc:description>
        <dc:identifier>lapys</dc:identifier>
        <dc:language>en-US</dc:language>
        <dc:publisher><cc:Agent><dc:title>LapysDev</dc:title></cc:Agent></dc:publisher>
        <dc:rights><cc:Agent><dc:title>LapysDev</dc:title></cc:Agent></dc:rights>
        <dc:subject><rdf:Bag><rdf:li>Lapys</rdf:li><rdf:li>LapysDev</rdf:li></rdf:Bag></dc:subject>
        <dc:title>Lapys</dc:title>
      </cc:Work>
    </rdf:RDF>
  </metadata>
</svg>
