<svg width="256" height="256" xmlns="http://www.w3.org/2000/svg">
  <desc>🧪</desc>
  <title>lapys (test)</title>
  <defs>
    <linearGradient id="gradient" gradientTransform="rotate(90 840 840) scale(3360)">
      <stop stop-color="#0000AA" offset="0"/>
      <stop stop-color="#0000CF" offset="1"/>
    </linearGradient>
  </defs>
  <path fill="url(#gradient)"           d="m63.8 0h128c35.3 0 63.8 28.6 63.8 63.8v128c0 35.3-28.6 63.8-63.8 63.8h-128c-35.3 0-63.8-28.6-63.8-63.8v-128c0-35.3 28.6-63.8 63.8-63.8"/>
  <path fill="rgba(255, 255, 255, .07)" d="m11.4 128c0-64.2 52.1-116 116-116s116 52.1 116 116-52.1 116-116 116-116-52.1-116-116m52.4-128c-35.3 0-63.8 28.6-63.8 63.8v128c0 35.3 28.6 63.8 63.8 63.8h128c35.3 0 63.8-28.6 63.8-63.8v-128c0-35.3-28.6-63.8-63.8-63.8z"/>
  <g stroke-width="11" stroke-miterlimit="100" stroke="#FFFFFF">
    <path fill="#FFFFFF" d="m72.1 160-20.1 36.1c-0.479 1.6-0.737 3.28-0.737 5.04v3.67c0 9.67 7.83 17.5 17.5 17.5h118c9.67 0 17.5-7.84 17.5-17.5v-3.67c0-1.63-0.22-3.2-0.638-4.7l-1.76-3.18c-47.2 15.8-89.1-12.9-130-33.3z"/>
    <path fill="none"    d="m128 63.6-0.053 0.0836h-24v41.7l-8.76 15.2 0.0228 0.023-22.3 38.7-0.532 0.95c40.7 20.4 82.6 49.1 130 33.3l-16.5-29.7 0.114-0.031-33.8-58.6v-41.6h-24z"/>
    <path fill="none"    d="m105 46.7h45.4c6.19 0 11.2 5.02 11.2 11.2 0 6.19-5.01 11.2-11.2 11.2h-45.4c-6.18 0-11.2-5.02-11.2-11.2 0-6.19 5.02-11.2 11.2-11.2z"/>
  </g>
</svg>