<svg xmlns="http://www.w3.org/2000/svg" version="1.2" viewBox="0 0 1024 1024" width="1024" height="1024"><g fill="none" stroke="#000" stroke-linejoin="round" stroke-width="60"><path d="m93.7 774.7c9.3 32.9 35.4 50.3 76.5 50.3h684.5c40.6 0 66.5-16.9 76.1-48.8l-276.3-263.7-143 136.5-143-136.5z"/><path d="m90 280.3c0-52.3 28-80.3 80.3-80.3h684.5c52.2 0 80.2 28 80.2 80.2v464.5c0 52.3-28 80.3-80.3 80.3h-684.5c-52.2 0-80.2-28-80.2-80.3z"/><path d="m930.8 248.8c-9.6-31.9-35.5-48.8-76-48.8h-684.5c-41.2 0-67.3 17.4-76.6 50.3l417.8 398.7z" fill="rgba(127,127,127,0.5)"/></g></svg>