<svg xmlns="http://www.w3.org/2000/svg" version="1.2" viewBox="0 0 1024 1024" width="1024" height="1024"><g><path d="m762 213h72c16.6 0 30 13.4 30 30v519c0 16.6-13.4 30-30 30h-72c-16.6 0-30-13.4-30-30v-519c0-16.6 13.4-30 30-30z"/><path d="m571 363h72c16.6 0 30 13.4 30 30v369c0 16.6-13.4 30-30 30h-72c-16.6 0-30-13.4-30-30v-369c0-16.6 13.4-30 30-30z"/><path d="m380 578h72c16.6 0 30 13.4 30 30v154c0 16.6-13.4 30-30 30h-72c-16.6 0-30-13.4-30-30v-154c0-16.6 13.4-30 30-30z"/><path d="m189 505h72c16.6 0 30 13.4 30 30v227c0 16.6-13.4 30-30 30h-72c-16.6 0-30-13.4-30-30v-227c0-16.6 13.4-30 30-30z"/></g><g stroke="#000" stroke-linecap="round" stroke-width="60"><path d="m127.5 321.5l197 83"/><path d="m324.5 404.5l88-151"/><path d="m412.5 253.5l197-91"/><path d="m516.9 88l229.1 11-150 177.7 6.2-114z" fill="#000" stroke="none"/><path d="m128.5 885.5h767"/></g></svg>